<mxfile host="65bd71144e">
    <diagram id="fOKxyn6eRORkYnOrvaVq" name="Mutex">
        <mxGraphModel dx="795" dy="563" grid="1" gridSize="10" guides="1" tooltips="1" connect="1" arrows="1" fold="1" page="1" pageScale="1" pageWidth="850" pageHeight="1100" math="0" shadow="0">
            <root>
                <mxCell id="0"/>
                <mxCell id="1" parent="0"/>
                <mxCell id="14" value="2. Response" style="edgeStyle=none;html=1;" parent="1" source="2" target="4" edge="1">
                    <mxGeometry relative="1" as="geometry">
                        <Array as="points">
                            <mxPoint x="260" y="200"/>
                        </Array>
                    </mxGeometry>
                </mxCell>
                <mxCell id="17" value="5. Response" style="edgeStyle=none;html=1;" parent="1" source="2" target="7" edge="1">
                    <mxGeometry relative="1" as="geometry">
                        <Array as="points">
                            <mxPoint x="450" y="320"/>
                        </Array>
                    </mxGeometry>
                </mxCell>
                <mxCell id="2" value="Server" style="ellipse;whiteSpace=wrap;html=1;aspect=fixed;" parent="1" vertex="1">
                    <mxGeometry x="280" y="240" width="80" height="80" as="geometry"/>
                </mxCell>
                <mxCell id="10" value="1. Can have mutex?" style="edgeStyle=none;html=1;exitX=1;exitY=1;exitDx=0;exitDy=0;" parent="1" source="4" target="2" edge="1">
                    <mxGeometry relative="1" as="geometry">
                        <Array as="points">
                            <mxPoint x="220" y="230"/>
                        </Array>
                    </mxGeometry>
                </mxCell>
                <mxCell id="18" value="4. Release" style="edgeStyle=none;html=1;" edge="1" parent="1" source="4" target="2">
                    <mxGeometry relative="1" as="geometry">
                        <Array as="points">
                            <mxPoint x="290" y="180"/>
                        </Array>
                    </mxGeometry>
                </mxCell>
                <mxCell id="21" value="3.&amp;nbsp; Access" style="edgeStyle=none;html=1;startArrow=classic;startFill=1;" edge="1" parent="1" source="4" target="19">
                    <mxGeometry relative="1" as="geometry">
                        <Array as="points">
                            <mxPoint x="270" y="140"/>
                        </Array>
                    </mxGeometry>
                </mxCell>
                <mxCell id="4" value="Node" style="rhombus;whiteSpace=wrap;html=1;" parent="1" vertex="1">
                    <mxGeometry x="120" y="120" width="80" height="80" as="geometry"/>
                </mxCell>
                <mxCell id="5" value="Node" style="rhombus;whiteSpace=wrap;html=1;" parent="1" vertex="1">
                    <mxGeometry x="410" y="110" width="80" height="80" as="geometry"/>
                </mxCell>
                <mxCell id="6" value="Node" style="rhombus;whiteSpace=wrap;html=1;" parent="1" vertex="1">
                    <mxGeometry x="110" y="380" width="80" height="80" as="geometry"/>
                </mxCell>
                <mxCell id="15" value="3. Can have mutex?" style="edgeStyle=none;html=1;" parent="1" source="7" target="2" edge="1">
                    <mxGeometry relative="1" as="geometry">
                        <Array as="points">
                            <mxPoint x="400" y="360"/>
                        </Array>
                    </mxGeometry>
                </mxCell>
                <mxCell id="7" value="Node" style="rhombus;whiteSpace=wrap;html=1;" parent="1" vertex="1">
                    <mxGeometry x="460" y="360" width="80" height="80" as="geometry"/>
                </mxCell>
                <mxCell id="8" value="Node" style="rhombus;whiteSpace=wrap;html=1;" parent="1" vertex="1">
                    <mxGeometry x="250" y="460" width="80" height="80" as="geometry"/>
                </mxCell>
                <mxCell id="9" value="Node" style="rhombus;whiteSpace=wrap;html=1;" parent="1" vertex="1">
                    <mxGeometry x="270" y="50" width="80" height="80" as="geometry"/>
                </mxCell>
                <mxCell id="19" value="Critical Section" style="shape=cylinder3;whiteSpace=wrap;html=1;boundedLbl=1;backgroundOutline=1;size=15;" vertex="1" parent="1">
                    <mxGeometry x="330" y="150" width="60" height="80" as="geometry"/>
                </mxCell>
            </root>
        </mxGraphModel>
    </diagram>
    <diagram id="xvW4HMtExJyCnBN0Gkjl" name="Token Ring">
        <mxGraphModel dx="860" dy="563" grid="1" gridSize="10" guides="1" tooltips="1" connect="1" arrows="1" fold="1" page="1" pageScale="1" pageWidth="850" pageHeight="1100" math="0" shadow="0">
            <root>
                <mxCell id="0"/>
                <mxCell id="1" parent="0"/>
                <mxCell id="5vOUMT4Zl3GGhbj1ISW2-1" value="3. token" style="edgeStyle=none;html=1;" edge="1" parent="1" source="5vOUMT4Zl3GGhbj1ISW2-3" target="5vOUMT4Zl3GGhbj1ISW2-5">
                    <mxGeometry relative="1" as="geometry"/>
                </mxCell>
                <mxCell id="5vOUMT4Zl3GGhbj1ISW2-2" value="2. access" style="edgeStyle=none;html=1;startArrow=classic;startFill=1;" edge="1" parent="1" source="5vOUMT4Zl3GGhbj1ISW2-3" target="5vOUMT4Zl3GGhbj1ISW2-18">
                    <mxGeometry relative="1" as="geometry">
                        <Array as="points"/>
                    </mxGeometry>
                </mxCell>
                <mxCell id="5vOUMT4Zl3GGhbj1ISW2-3" value="Node" style="rhombus;whiteSpace=wrap;html=1;" vertex="1" parent="1">
                    <mxGeometry x="240" y="240" width="80" height="80" as="geometry"/>
                </mxCell>
                <mxCell id="5vOUMT4Zl3GGhbj1ISW2-4" style="edgeStyle=none;html=1;" edge="1" parent="1" source="5vOUMT4Zl3GGhbj1ISW2-5" target="5vOUMT4Zl3GGhbj1ISW2-7">
                    <mxGeometry relative="1" as="geometry"/>
                </mxCell>
                <mxCell id="5vOUMT4Zl3GGhbj1ISW2-5" value="Node" style="rhombus;whiteSpace=wrap;html=1;" vertex="1" parent="1">
                    <mxGeometry x="360" y="280" width="80" height="80" as="geometry"/>
                </mxCell>
                <mxCell id="5vOUMT4Zl3GGhbj1ISW2-6" style="edgeStyle=none;html=1;" edge="1" parent="1" source="5vOUMT4Zl3GGhbj1ISW2-7" target="5vOUMT4Zl3GGhbj1ISW2-9">
                    <mxGeometry relative="1" as="geometry"/>
                </mxCell>
                <mxCell id="5vOUMT4Zl3GGhbj1ISW2-7" value="Node" style="rhombus;whiteSpace=wrap;html=1;" vertex="1" parent="1">
                    <mxGeometry x="400" y="400" width="80" height="80" as="geometry"/>
                </mxCell>
                <mxCell id="5vOUMT4Zl3GGhbj1ISW2-8" style="edgeStyle=none;html=1;" edge="1" parent="1" source="5vOUMT4Zl3GGhbj1ISW2-9" target="5vOUMT4Zl3GGhbj1ISW2-11">
                    <mxGeometry relative="1" as="geometry"/>
                </mxCell>
                <mxCell id="5vOUMT4Zl3GGhbj1ISW2-9" value="Node" style="rhombus;whiteSpace=wrap;html=1;" vertex="1" parent="1">
                    <mxGeometry x="360" y="520" width="80" height="80" as="geometry"/>
                </mxCell>
                <mxCell id="5vOUMT4Zl3GGhbj1ISW2-10" style="edgeStyle=none;html=1;" edge="1" parent="1" source="5vOUMT4Zl3GGhbj1ISW2-11" target="5vOUMT4Zl3GGhbj1ISW2-13">
                    <mxGeometry relative="1" as="geometry"/>
                </mxCell>
                <mxCell id="5vOUMT4Zl3GGhbj1ISW2-11" value="Node" style="rhombus;whiteSpace=wrap;html=1;" vertex="1" parent="1">
                    <mxGeometry x="240" y="560" width="80" height="80" as="geometry"/>
                </mxCell>
                <mxCell id="5vOUMT4Zl3GGhbj1ISW2-12" style="edgeStyle=none;html=1;" edge="1" parent="1" source="5vOUMT4Zl3GGhbj1ISW2-13" target="5vOUMT4Zl3GGhbj1ISW2-15">
                    <mxGeometry relative="1" as="geometry"/>
                </mxCell>
                <mxCell id="5vOUMT4Zl3GGhbj1ISW2-13" value="Node" style="rhombus;whiteSpace=wrap;html=1;" vertex="1" parent="1">
                    <mxGeometry x="120" y="520" width="80" height="80" as="geometry"/>
                </mxCell>
                <mxCell id="5vOUMT4Zl3GGhbj1ISW2-14" style="edgeStyle=none;html=1;" edge="1" parent="1" source="5vOUMT4Zl3GGhbj1ISW2-15" target="5vOUMT4Zl3GGhbj1ISW2-17">
                    <mxGeometry relative="1" as="geometry"/>
                </mxCell>
                <mxCell id="5vOUMT4Zl3GGhbj1ISW2-15" value="Node" style="rhombus;whiteSpace=wrap;html=1;" vertex="1" parent="1">
                    <mxGeometry x="80" y="400" width="80" height="80" as="geometry"/>
                </mxCell>
                <mxCell id="5vOUMT4Zl3GGhbj1ISW2-16" value="1. token" style="edgeStyle=none;html=1;" edge="1" parent="1" source="5vOUMT4Zl3GGhbj1ISW2-17" target="5vOUMT4Zl3GGhbj1ISW2-3">
                    <mxGeometry relative="1" as="geometry"/>
                </mxCell>
                <mxCell id="5vOUMT4Zl3GGhbj1ISW2-17" value="Node" style="rhombus;whiteSpace=wrap;html=1;" vertex="1" parent="1">
                    <mxGeometry x="120" y="280" width="80" height="80" as="geometry"/>
                </mxCell>
                <mxCell id="5vOUMT4Zl3GGhbj1ISW2-18" value="Critical section" style="shape=cylinder3;whiteSpace=wrap;html=1;boundedLbl=1;backgroundOutline=1;size=15;" vertex="1" parent="1">
                    <mxGeometry x="250" y="400" width="60" height="80" as="geometry"/>
                </mxCell>
            </root>
        </mxGraphModel>
    </diagram>
</mxfile>